<svg xmlns="http://www.w3.org/2000/svg" xml:space="preserve" width="250px" height="54px" version="1.1"
     style="shape-rendering:geometricPrecision; text-rendering:geometricPrecision; image-rendering:optimizeQuality; fill-rule:evenodd; clip-rule:evenodd"
     viewBox="0 0 102.45 19.412">
 <defs>
     <style type="text/css">

         .str0 {stroke:#FEFEFE;stroke-width:0.55;stroke-miterlimit:22.9256}
         .fil1 {fill:#FEFEFE}
         .fil0 {fill:#FEFEFE;fill-rule:nonzero}

     </style>
 </defs>
    <g>
        <metadata></metadata>
        <g>
            <path class="fil0"
                  d="M9.025 9.717c0,0.062 -0.051,0.153 -0.15,0.265 -1.02,1.18 -2.283,1.769 -3.79,1.769 -1.568,0 -2.826,-0.573 -3.765,-1.715 -0.881,-1.068 -1.319,-2.398 -1.319,-3.999 0,-1.598 0.447,-2.936 1.343,-4.012 0.953,-1.159 2.211,-1.74 3.776,-1.74 1.587,0 2.813,0.535 3.683,1.606 0.083,0.11 0.126,0.204 0.126,0.276 0,0.088 -0.139,0.351 -0.417,0.787 -0.278,0.436 -0.447,0.655 -0.506,0.655 -0.067,0 -0.227,-0.128 -0.479,-0.385 -0.308,-0.313 -0.599,-0.549 -0.872,-0.707 -0.45,-0.257 -0.947,-0.385 -1.491,-0.385 -1.036,0 -1.841,0.393 -2.417,1.183 -0.514,0.706 -0.771,1.595 -0.771,2.668 0,1.071 0.254,1.967 0.763,2.69 0.575,0.811 1.378,1.215 2.409,1.215 0.514,0 1.009,-0.129 1.485,-0.383 0.313,-0.166 0.634,-0.404 0.958,-0.712 0.273,-0.254 0.42,-0.383 0.447,-0.383 0.032,0 0.203,0.206 0.516,0.621 0.313,0.415 0.471,0.643 0.471,0.685z"></path>
            <path class="fil0"
                  d="M27.242 2.143c0,0.099 -0.056,0.15 -0.166,0.15 -0.407,0 -1.076,-0.024 -2.007,-0.072 -0.867,-0.043 -1.539,-0.059 -2.007,-0.048l-0.573 0.008c-0.367,0.005 -0.562,0.013 -0.581,0.024 -0.104,0.04 -0.158,0.206 -0.158,0.493l0 1.889c0,0.356 0.075,0.533 0.228,0.533 0.509,0 1.274,-0.024 2.296,-0.072 1.022,-0.048 1.788,-0.072 2.296,-0.072 0.11,0 0.166,0.043 0.166,0.126 0,0.091 -0.008,0.222 -0.021,0.399 -0.013,0.177 -0.019,0.308 -0.019,0.399 0,0.094 0.005,0.238 0.016,0.431 0.011,0.19 0.016,0.335 0.016,0.428 0,0.064 -0.056,0.094 -0.166,0.094 -0.361,0 -0.91,-0.008 -1.643,-0.029 -0.736,-0.021 -1.287,-0.032 -1.654,-0.032 -0.674,0 -1.057,0.005 -1.145,0.016 -0.236,0.027 -0.353,0.123 -0.353,0.289 0,0.468 0.013,1.172 0.04,2.112 0.027,0.937 0.04,1.641 0.04,2.109 0,0.158 -0.062,0.236 -0.187,0.236 -0.105,0 -0.26,-0.013 -0.466,-0.035 -0.206,-0.024 -0.364,-0.037 -0.474,-0.037 -0.088,0 -0.225,0.008 -0.407,0.024 -0.182,0.016 -0.319,0.024 -0.407,0.024 -0.131,0 -0.195,-0.056 -0.195,-0.171 0,-0.581 0.024,-1.453 0.072,-2.62 0.048,-1.164 0.072,-2.037 0.072,-2.617 0,-0.538 -0.053,-2.288 -0.16,-5.254l0 -0.102c-0.006,-0.11 0.059,-0.171 0.195,-0.187 0.043,0 0.375,0.008 0.996,0.024 0.822,0.016 1.582,0.019 2.28,0.008 0.947,-0.011 2.152,-0.064 3.613,-0.161 0.198,-0.016 0.31,0.072 0.337,0.26 -0.005,0.142 0.005,0.359 0.032,0.647 0.061,0.404 0.094,0.669 0.094,0.79z"></path>
            <path class="fil0"
                  d="M35.803 2.143c0,0.099 -0.056,0.15 -0.166,0.15 -0.407,0 -1.076,-0.024 -2.007,-0.072 -0.867,-0.043 -1.539,-0.059 -2.007,-0.048l-0.573 0.008c-0.367,0.005 -0.562,0.013 -0.581,0.024 -0.104,0.04 -0.158,0.206 -0.158,0.493l0 1.889c0,0.356 0.075,0.533 0.228,0.533 0.509,0 1.274,-0.024 2.296,-0.072 1.022,-0.048 1.788,-0.072 2.296,-0.072 0.11,0 0.166,0.043 0.166,0.126 0,0.091 -0.008,0.222 -0.021,0.399 -0.013,0.177 -0.019,0.308 -0.019,0.399 0,0.094 0.005,0.238 0.016,0.431 0.011,0.19 0.016,0.335 0.016,0.428 0,0.064 -0.056,0.094 -0.166,0.094 -0.361,0 -0.91,-0.008 -1.643,-0.029 -0.736,-0.021 -1.287,-0.032 -1.654,-0.032 -0.674,0 -1.057,0.005 -1.145,0.016 -0.236,0.027 -0.353,0.123 -0.353,0.289 0,0.468 0.013,1.172 0.04,2.112 0.027,0.937 0.04,1.641 0.04,2.109 0,0.158 -0.062,0.236 -0.187,0.236 -0.105,0 -0.26,-0.013 -0.466,-0.035 -0.206,-0.024 -0.364,-0.037 -0.474,-0.037 -0.088,0 -0.225,0.008 -0.407,0.024 -0.182,0.016 -0.319,0.024 -0.407,0.024 -0.131,0 -0.195,-0.056 -0.195,-0.171 0,-0.581 0.024,-1.453 0.072,-2.62 0.048,-1.164 0.072,-2.037 0.072,-2.617 0,-0.538 -0.053,-2.288 -0.16,-5.254l0 -0.102c-0.006,-0.11 0.059,-0.171 0.195,-0.187 0.043,0 0.375,0.008 0.996,0.024 0.822,0.016 1.582,0.019 2.28,0.008 0.947,-0.011 2.152,-0.064 3.613,-0.161 0.198,-0.016 0.31,0.072 0.337,0.26 -0.005,0.142 0.005,0.359 0.032,0.647 0.061,0.404 0.094,0.669 0.094,0.79z"></path>
            <path class="fil0"
                  d="M44.253 9.942c0,0.083 -0.021,0.203 -0.062,0.361 -0.048,0.201 -0.078,0.321 -0.088,0.364 -0.013,0.187 -0.051,0.466 -0.11,0.827 -0.024,0.094 -0.094,0.142 -0.203,0.142 -0.051,0 -0.15,-0.011 -0.297,-0.032 -0.642,-0.094 -1.638,-0.142 -2.984,-0.142 -0.383,0 -0.955,0.01 -1.724,0.032 -0.768,0.021 -1.343,0.032 -1.723,0.032 -0.174,0 -0.26,-0.075 -0.26,-0.228 0,-0.586 0.032,-1.464 0.097,-2.639 0.064,-1.172 0.096,-2.053 0.096,-2.639 0,-0.594 -0.032,-1.705 -0.096,-3.332 -0.011,-0.418 -0.04,-1.041 -0.088,-1.873l-0.008 -0.11c-0.005,-0.121 0.062,-0.179 0.204,-0.179 0.367,0 0.915,0.011 1.649,0.032 0.731,0.019 1.282,0.029 1.646,0.029 0.351,0 0.875,-0.011 1.574,-0.029 0.699,-0.021 1.223,-0.032 1.574,-0.032 0.246,0 0.38,0.075 0.399,0.228 0.11,0.685 0.166,1.113 0.166,1.279 0,0.121 -0.056,0.179 -0.171,0.179 -0.444,0 -1.119,-0.024 -2.018,-0.072 -0.902,-0.048 -1.579,-0.072 -2.034,-0.072 -0.428,0 -0.699,0.059 -0.811,0.174 -0.113,0.115 -0.169,0.399 -0.169,0.856l0 1.169c0,0.321 0.008,0.506 0.024,0.559 0.046,0.163 0.182,0.244 0.407,0.244 0.062,0 0.15,-0.003 0.265,-0.008 0.12,0 0.209,0 0.267,0 1.023,0 1.941,-0.019 2.754,-0.056 0.319,-0.01 0.696,-0.037 1.13,-0.08 0.11,-0.011 0.163,0.037 0.163,0.142 0,0.169 -0.019,0.426 -0.059,0.774 -0.04,0.345 -0.059,0.605 -0.059,0.779 0,0.096 -0.078,0.142 -0.236,0.142 -0.062,0 -0.294,-0.019 -0.696,-0.054 -0.292,-0.032 -0.95,-0.048 -1.972,-0.048 -0.862,0 -1.408,0.011 -1.635,0.032 -0.209,0.013 -0.329,0.123 -0.361,0.326 0.005,-0.037 0.008,0.163 0.008,0.6l0 1.156c0,0.54 0.083,0.878 0.252,1.014 0.129,0.11 0.455,0.163 0.977,0.163l0.862 -0.008c0.367,0 1.392,-0.064 3.081,-0.193l0.118 -0.008c0.104,-0.01 0.155,0.056 0.155,0.198z"></path>
            <path class="fil0"
                  d="M52.895 9.942c0,0.083 -0.021,0.203 -0.062,0.361 -0.048,0.201 -0.078,0.321 -0.088,0.364 -0.013,0.187 -0.051,0.466 -0.11,0.827 -0.024,0.094 -0.094,0.142 -0.203,0.142 -0.051,0 -0.15,-0.011 -0.297,-0.032 -0.642,-0.094 -1.638,-0.142 -2.984,-0.142 -0.383,0 -0.955,0.01 -1.724,0.032 -0.768,0.021 -1.343,0.032 -1.723,0.032 -0.174,0 -0.26,-0.075 -0.26,-0.228 0,-0.586 0.032,-1.464 0.097,-2.639 0.064,-1.172 0.096,-2.053 0.096,-2.639 0,-0.594 -0.032,-1.705 -0.096,-3.332 -0.011,-0.418 -0.04,-1.041 -0.088,-1.873l-0.008 -0.11c-0.005,-0.121 0.062,-0.179 0.204,-0.179 0.367,0 0.915,0.011 1.649,0.032 0.731,0.019 1.282,0.029 1.646,0.029 0.351,0 0.875,-0.011 1.574,-0.029 0.699,-0.021 1.223,-0.032 1.574,-0.032 0.246,0 0.38,0.075 0.399,0.228 0.11,0.685 0.166,1.113 0.166,1.279 0,0.121 -0.056,0.179 -0.171,0.179 -0.444,0 -1.119,-0.024 -2.018,-0.072 -0.902,-0.048 -1.579,-0.072 -2.034,-0.072 -0.428,0 -0.699,0.059 -0.811,0.174 -0.113,0.115 -0.169,0.399 -0.169,0.856l0 1.169c0,0.321 0.008,0.506 0.024,0.559 0.046,0.163 0.182,0.244 0.407,0.244 0.062,0 0.15,-0.003 0.265,-0.008 0.12,0 0.209,0 0.267,0 1.023,0 1.941,-0.019 2.754,-0.056 0.319,-0.01 0.696,-0.037 1.13,-0.08 0.11,-0.011 0.163,0.037 0.163,0.142 0,0.169 -0.019,0.426 -0.059,0.774 -0.04,0.345 -0.059,0.605 -0.059,0.779 0,0.096 -0.078,0.142 -0.236,0.142 -0.062,0 -0.294,-0.019 -0.696,-0.054 -0.292,-0.032 -0.95,-0.048 -1.972,-0.048 -0.862,0 -1.408,0.011 -1.635,0.032 -0.209,0.013 -0.329,0.123 -0.361,0.326 0.005,-0.037 0.008,0.163 0.008,0.6l0 1.156c0,0.54 0.083,0.878 0.252,1.014 0.129,0.11 0.455,0.163 0.977,0.163l0.862 -0.008c0.367,0 1.392,-0.064 3.081,-0.193l0.118 -0.008c0.104,-0.01 0.155,0.056 0.155,0.198z"></path>
            <path class="fil0"
                  d="M66.595 8.138c0,0.91 -0.273,1.691 -0.822,2.344 -0.581,0.685 -1.317,1.028 -2.211,1.028 -0.335,0 -0.838,-0.008 -1.509,-0.024 -0.669,-0.016 -1.172,-0.021 -1.507,-0.021 -0.246,0 -0.616,0.008 -1.108,0.029 -0.495,0.021 -0.864,0.032 -1.111,0.032 -0.131,0 -0.195,-0.059 -0.195,-0.179 0,-0.575 0.027,-1.44 0.08,-2.593 0.053,-1.151 0.08,-2.015 0.08,-2.591 0,-0.605 -0.027,-1.518 -0.08,-2.732 -0.054,-1.215 -0.08,-2.125 -0.08,-2.732 0,-0.115 0.064,-0.171 0.195,-0.171 0.466,0 1.167,0.003 2.101,0.008 0.937,0.006 1.638,0.008 2.109,0.008 1.097,0 1.972,0.204 2.625,0.61 0.795,0.498 1.191,1.269 1.191,2.312 0,0.361 -0.104,0.736 -0.313,1.124 -0.209,0.391 -0.463,0.685 -0.763,0.883 -0.15,0.099 -0.228,0.163 -0.228,0.195 0,0.032 0.078,0.088 0.228,0.171 0.399,0.22 0.717,0.543 0.955,0.969 0.241,0.428 0.361,0.87 0.361,1.33zm-2.2 -4.502c0,-0.733 -0.329,-1.231 -0.988,-1.485 -0.396,-0.153 -1.046,-0.228 -1.951,-0.228 -0.878,0 -1.317,0.064 -1.317,0.195 0,0.171 -0.008,0.431 -0.024,0.776 -0.016,0.343 -0.024,0.605 -0.024,0.781 0,0.12 0.002,0.305 0.008,0.557 0.005,0.249 0.008,0.436 0.008,0.562 0,0.152 0.591,0.228 1.772,0.228 1.678,0 2.516,-0.463 2.516,-1.386zm0.209 4.427c0,-0.64 -0.284,-1.071 -0.854,-1.296 -0.361,-0.147 -0.921,-0.219 -1.684,-0.219 -1.317,0 -1.975,0.07 -1.975,0.211l0 1.287c0,0.187 0.005,0.476 0.016,0.862 0.011,0.388 0.016,0.677 0.016,0.87 0,0.053 0.166,0.094 0.501,0.118 0.335,0.027 0.83,0.04 1.488,0.04 0.824,0 1.418,-0.107 1.78,-0.321 0.474,-0.284 0.712,-0.8 0.712,-1.552z"></path>
            <path class="fil0"
                  d="M78.299 6.021c0,1.552 -0.498,2.888 -1.491,4.006 -1.033,1.159 -2.32,1.74 -3.857,1.74 -1.542,0 -2.829,-0.578 -3.857,-1.731 -0.993,-1.113 -1.491,-2.452 -1.491,-4.014 0,-1.544 0.503,-2.88 1.507,-4.004 1.033,-1.164 2.315,-1.748 3.841,-1.748 1.531,0 2.816,0.584 3.849,1.748 0.998,1.119 1.499,2.454 1.499,4.004zm-1.895 -0.021c0,-1.025 -0.319,-1.916 -0.955,-2.676 -0.669,-0.806 -1.507,-1.207 -2.516,-1.207 -0.998,0 -1.83,0.407 -2.494,1.223 -0.626,0.763 -0.939,1.659 -0.939,2.682 0,1.02 0.313,1.914 0.939,2.676 0.664,0.816 1.496,1.223 2.494,1.223 1.012,0 1.855,-0.407 2.524,-1.223 0.632,-0.763 0.947,-1.665 0.947,-2.698z"></path>
            <path class="fil0"
                  d="M89.944 6.021c0,1.552 -0.498,2.888 -1.491,4.006 -1.033,1.159 -2.32,1.74 -3.857,1.74 -1.542,0 -2.829,-0.578 -3.857,-1.731 -0.993,-1.113 -1.491,-2.452 -1.491,-4.014 0,-1.544 0.503,-2.88 1.507,-4.004 1.033,-1.164 2.315,-1.748 3.841,-1.748 1.531,0 2.816,0.584 3.849,1.748 0.998,1.119 1.499,2.454 1.499,4.004zm-1.895 -0.021c0,-1.025 -0.319,-1.916 -0.955,-2.676 -0.669,-0.806 -1.507,-1.207 -2.516,-1.207 -0.998,0 -1.83,0.407 -2.494,1.223 -0.626,0.763 -0.939,1.659 -0.939,2.682 0,1.02 0.313,1.914 0.939,2.676 0.664,0.816 1.496,1.223 2.494,1.223 1.012,0 1.855,-0.407 2.524,-1.223 0.632,-0.763 0.947,-1.665 0.947,-2.698z"></path>
            <path class="fil0"
                  d="M102.263 11.331c0,0.131 -0.064,0.195 -0.195,0.195 -0.094,0 -0.236,-0.008 -0.426,-0.024 -0.19,-0.016 -0.332,-0.024 -0.425,-0.024 -0.094,0 -0.238,0.008 -0.431,0.024 -0.193,0.016 -0.335,0.024 -0.428,0.024 -0.131,0 -0.195,-0.086 -0.195,-0.259 0,-0.664 0.019,-1.66 0.062,-2.987 0.043,-1.327 0.061,-2.323 0.061,-2.989 0,-0.099 -0.019,-0.147 -0.061,-0.147 -0.048,0 -0.083,0.029 -0.11,0.086 -0.268,0.57 -0.897,2.095 -1.89,4.571 -0.16,0.476 -0.393,1.07 -0.696,1.782 -0.037,0.059 -0.227,0.088 -0.567,0.088 -0.495,0 -0.768,-0.045 -0.822,-0.134 -0.177,-0.423 -0.431,-1.017 -0.763,-1.78 -0.434,-1.033 -1.103,-2.575 -2.005,-4.622 -0.016,-0.037 -0.048,-0.072 -0.102,-0.11 -0.043,0.032 -0.061,0.088 -0.061,0.171 0,0.674 0.011,1.686 0.035,3.035 0.024,1.349 0.035,2.361 0.035,3.035 0,0.171 -0.064,0.259 -0.195,0.259 -0.091,0 -0.225,-0.008 -0.41,-0.024 -0.182,-0.016 -0.318,-0.024 -0.407,-0.024 -0.094,0 -0.236,0.008 -0.42,0.024 -0.185,0.016 -0.326,0.024 -0.42,0.024 -0.131,0 -0.195,-0.051 -0.195,-0.15 0,-0.581 0.027,-1.45 0.08,-2.607 0.053,-1.159 0.08,-2.029 0.08,-2.607 0,-0.602 -0.027,-1.504 -0.08,-2.711 -0.054,-1.204 -0.08,-2.106 -0.08,-2.709 0,-0.099 0.059,-0.155 0.179,-0.171 0.709,-0.094 1.244,-0.142 1.603,-0.142 0.053,0 0.126,0.107 0.222,0.321 1.269,2.781 2.358,5.264 3.27,7.448 0.214,0.514 0.343,0.768 0.386,0.768 0.053,0 0.166,-0.209 0.337,-0.626 0.715,-1.691 1.705,-4.202 2.968,-7.534 0.083,-0.209 0.171,-0.313 0.268,-0.313 0.177,0 0.442,0.011 0.795,0.032 0.353,0.021 0.618,0.029 0.795,0.029 0.129,0 0.193,0.064 0.193,0.19 0,0.599 -0.019,1.504 -0.056,2.708 -0.037,1.204 -0.056,2.109 -0.056,2.709 0,0.575 0.021,1.437 0.064,2.588 0.043,1.151 0.064,2.01 0.064,2.58z"></path>
            <path class="fil1 str0"
                  d="M12.438 7.338c-0.022,-0.015 -0.036,-0.034 -0.056,-0.053 -0.154,-0.143 -0.316,-0.216 -0.509,-0.288 -0.132,-0.05 -0.234,-0.055 -0.356,0.011 -0.045,0.024 -0.089,0.068 -0.115,0.11 -0.105,0.168 -0.037,0.397 0.129,0.481 0.121,0.062 0.176,0.036 0.342,0.149 0.234,0.158 0.334,0.471 0.293,0.747 -0.019,0.13 -0.033,0.266 -0.033,0.396l-0.006 0.163c0.003,0.092 0.002,0.234 0.015,0.325l0.041 0.3c0.055,0.332 0.163,0.608 0.286,0.906 0.014,0.035 0.049,0.084 0.051,0.119 -0.1,-0.053 -0.195,-0.112 -0.289,-0.174 -0.124,-0.083 -0.289,-0.203 -0.397,-0.304 -0.081,-0.075 -0.165,-0.149 -0.239,-0.231l-0.115 -0.123c-0.01,-0.012 -0.016,-0.017 -0.027,-0.028 -0.014,-0.015 -0.014,-0.02 -0.027,-0.034 -0.02,-0.022 -0.034,-0.04 -0.054,-0.061 -0.122,-0.132 -0.294,-0.39 -0.391,-0.542 -0.093,-0.145 -0.178,-0.299 -0.255,-0.453 -0.106,-0.212 -0.2,-0.433 -0.275,-0.658 -0.004,-0.013 -0.01,-0.025 -0.015,-0.04 -0.058,-0.165 -0.102,-0.332 -0.145,-0.502 -0.049,-0.192 -0.087,-0.39 -0.116,-0.586 -0.021,-0.142 -0.031,-0.304 -0.048,-0.422 -0.018,-0.123 -0.004,-0.331 -0.017,-0.452 -0.012,-0.11 0.008,-0.549 0.023,-0.666 0.008,-0.064 0.012,-0.14 0.022,-0.209 0.044,-0.303 0.076,-0.483 0.148,-0.792 0.028,-0.119 0.064,-0.247 0.105,-0.365 0.06,-0.17 0.117,-0.34 0.19,-0.504 0.013,-0.029 0.025,-0.055 0.035,-0.08 0.053,-0.13 0.128,-0.274 0.198,-0.394l0.084 -0.147c0.13,-0.218 0.362,-0.562 0.541,-0.746 0.011,-0.012 0.016,-0.015 0.027,-0.028l0.028 -0.033c0.019,-0.021 0.037,-0.038 0.058,-0.058 0.03,-0.03 0.053,-0.064 0.085,-0.092l0.153 -0.14c0.013,-0.011 0.019,-0.019 0.031,-0.03l0.431 -0.325c0.186,-0.124 0.59,-0.333 0.797,-0.381 0.007,0.026 0.175,0.299 0.195,0.336l0.138 0.257c0.015,0.03 0.031,0.058 0.045,0.092l0.162 0.369c0.014,0.032 0.023,0.061 0.035,0.094 0.013,0.034 0.026,0.069 0.036,0.1 0.095,0.285 0.159,0.569 0.19,0.872 0.008,0.08 0.005,0.176 0.014,0.252 0.005,0.043 -0.006,0.073 -0.006,0.121 0,0.051 -0.001,0.09 -0.006,0.131 -0.021,0.194 -0.032,0.275 -0.07,0.461 -0.022,0.106 -0.053,0.205 -0.087,0.308 -0.122,0.362 -0.221,0.553 -0.372,0.889 -0.088,0.196 -0.192,0.385 -0.288,0.577l-0.089 0.176c-0.009,0.017 -0.014,0.028 -0.023,0.045 -0.057,0.1 -0.102,0.208 -0.151,0.313 -0.015,0.033 -0.032,0.06 -0.044,0.092l-0.308 0.755zm1.442 -7.063l0.299 0c0.069,0.003 0.135,0.009 0.196,0.017 0.181,0.025 0.352,0.05 0.531,0.095 0.128,0.032 0.242,0.067 0.363,0.114 0.04,0.016 0.075,0.026 0.113,0.043 0.126,0.057 0.255,0.109 0.377,0.175 0.221,0.119 0.418,0.253 0.619,0.403l0.216 0.179c0.089,0.075 0.177,0.155 0.256,0.241 0.003,0.003 0.006,0.006 0.01,0.011l0.132 0.14c0.013,0.015 0.024,0.023 0.037,0.038 0.025,0.031 0.046,0.052 0.072,0.084l0.343 0.447c0.09,0.121 0.169,0.253 0.242,0.384l0.14 0.255c0.006,0.012 0.007,0.016 0.013,0.028l0.065 0.132c0.069,0.144 0.128,0.29 0.188,0.439l0.126 0.351c0.012,0.04 0.025,0.076 0.039,0.118 0.008,0.024 0.01,0.042 0.018,0.064 0.006,0.019 0.011,0.034 0.017,0.058 0.011,0.045 0.022,0.075 0.034,0.123l0.061 0.252c0.044,0.174 0.068,0.359 0.098,0.535 0.008,0.045 0.01,0.089 0.018,0.139 0.02,0.141 0.026,0.328 0.041,0.429 0.005,0.032 0.008,0.117 0.01,0.225l0 0.413c-0.002,0.124 -0.006,0.226 -0.011,0.261l-0.024 0.29c-0.003,0.044 -0.011,0.093 -0.017,0.14 -0.047,0.346 -0.095,0.593 -0.177,0.926l-0.053 0.186c-0.006,0.021 -0.009,0.038 -0.016,0.059 -0.014,0.042 -0.026,0.076 -0.038,0.118 -0.048,0.166 -0.144,0.417 -0.215,0.575l-0.204 0.422c-0.143,0.289 -0.415,0.708 -0.628,0.952 -0.072,0.083 -0.14,0.174 -0.218,0.252l-0.138 0.141c-0.005,0.005 -0.007,0.006 -0.011,0.01l-0.007 0.007c-0.029,0.026 -0.052,0.05 -0.079,0.077l-0.054 0.048c-0.152,0.13 -0.3,0.264 -0.468,0.376l-0.24 0.155c-0.02,0.013 -0.032,0.018 -0.052,0.03 -0.203,0.122 -0.419,0.214 -0.639,0.301 -0.119,0.047 -0.236,0.081 -0.364,0.113 -0.349,0.087 -0.619,0.111 -0.992,0.111 -0.393,0 -0.947,-0.108 -1.314,-0.272 -0.127,-0.056 -0.255,-0.107 -0.377,-0.175 -0.02,-0.011 -0.026,-0.017 -0.048,-0.027 -0.071,-0.035 -0.131,-0.075 -0.198,-0.115 -0.132,-0.079 -0.251,-0.17 -0.373,-0.261 -0.101,-0.076 -0.192,-0.163 -0.288,-0.243l-0.111 -0.107c-0.006,-0.005 -0.005,-0.004 -0.011,-0.01l-0.051 -0.051c-0.001,-0.001 -0.002,-0.002 -0.003,-0.004 -0.001,-0.001 -0.002,-0.002 -0.003,-0.003l-0.395 -0.45c-0.013,-0.016 -0.023,-0.029 -0.036,-0.046l-0.166 -0.229c-0.023,-0.031 -0.042,-0.062 -0.063,-0.094l-0.093 -0.146c-0.013,-0.02 -0.018,-0.033 -0.03,-0.052 -0.022,-0.035 -0.037,-0.061 -0.059,-0.098 -0.115,-0.195 -0.232,-0.422 -0.316,-0.63 -0.131,-0.321 -0.233,-0.608 -0.321,-0.939 -0.01,-0.039 -0.023,-0.087 -0.033,-0.124 -0.025,-0.093 -0.067,-0.307 -0.081,-0.389 -0.088,-0.507 -0.111,-0.881 -0.111,-1.4l0 -0.008 0.009 -0.311c0.006,-0.039 0.009,-0.099 0.012,-0.145 0.015,-0.277 0.081,-0.707 0.146,-0.965l0.25 -0.853c0.037,-0.112 0.087,-0.229 0.133,-0.337l0.15 -0.32c0.006,-0.013 0.008,-0.016 0.014,-0.027l0.183 -0.335c0.011,-0.018 0.02,-0.03 0.029,-0.046l0.12 -0.193 0.406 -0.54c0.081,-0.099 0.171,-0.186 0.258,-0.28 0.004,-0.004 0.005,-0.006 0.01,-0.011l0.331 -0.302c0.215,-0.171 0.362,-0.279 0.6,-0.422l0.525 -0.258c0.145,-0.065 0.322,-0.118 0.477,-0.156 0.084,-0.021 0.171,-0.042 0.257,-0.056 0.156,-0.026 0.349,-0.048 0.542,-0.055zm1.609 1.076c0.099,0.023 0.449,0.288 0.554,0.372 0.045,0.035 0.084,0.069 0.125,0.106l0.426 0.439c0.012,0.014 0.017,0.017 0.029,0.032 0.229,0.292 0.429,0.575 0.598,0.907 0.014,0.028 0.025,0.051 0.038,0.077 0.112,0.224 0.204,0.456 0.288,0.693 0.036,0.103 0.062,0.209 0.096,0.313 0.01,0.032 0.016,0.06 0.024,0.091l0.045 0.187c0.114,0.534 0.142,0.769 0.159,1.346 0.001,0.038 0.007,0.062 0.007,0.109 0,0.048 -0.007,0.065 -0.007,0.109 0,0.039 0,0.078 0,0.116 0,0.05 -0.007,0.068 -0.007,0.116 0.001,0.149 -0.022,0.288 -0.034,0.429 -0.016,0.189 -0.06,0.409 -0.099,0.595 -0.007,0.035 -0.017,0.061 -0.022,0.094 -0.032,0.188 -0.163,0.593 -0.244,0.798l-0.213 0.482c-0.027,0.053 -0.052,0.098 -0.08,0.152l-0.084 0.148c-0.116,0.192 -0.236,0.382 -0.376,0.557 -0.018,0.023 -0.032,0.041 -0.051,0.064l-0.215 0.248c-0.047,0.047 -0.09,0.102 -0.142,0.144l-0.151 0.142c-0.115,0.114 -0.397,0.311 -0.533,0.393l-0.3 0.163c-0.05,0.025 -0.286,0.133 -0.336,0.134 -0.006,-0.028 -0.049,-0.084 -0.067,-0.11 -0.025,-0.038 -0.048,-0.072 -0.072,-0.112 -0.023,-0.039 -0.043,-0.072 -0.067,-0.11 -0.07,-0.111 -0.13,-0.238 -0.189,-0.356 -0.061,-0.12 -0.113,-0.254 -0.163,-0.381 -0.036,-0.091 -0.063,-0.182 -0.091,-0.277 -0.079,-0.263 -0.113,-0.49 -0.113,-0.799 0,-0.494 0.167,-0.864 0.344,-1.29 0.011,-0.027 0.016,-0.037 0.028,-0.061l0.15 -0.313c0.081,-0.161 0.158,-0.326 0.245,-0.484 0.007,-0.013 0.007,-0.013 0.013,-0.027 0.009,-0.02 0.007,-0.016 0.016,-0.032l0.09 -0.182c0.006,-0.013 0.007,-0.011 0.014,-0.027l0.104 -0.216c0.093,-0.208 0.19,-0.417 0.275,-0.63 0.018,-0.044 0.034,-0.085 0.052,-0.132 0.035,-0.092 0.064,-0.177 0.095,-0.272 0.094,-0.278 0.117,-0.534 0.368,-0.722 0.259,-0.193 0.388,-0.1 0.557,-0.171 0.291,-0.122 0.264,-0.56 -0.043,-0.639 -0.135,-0.035 -0.343,0 -0.477,0.043 -0.02,0.007 -0.045,0.013 -0.067,0.021 -0.022,0.008 -0.05,0.021 -0.07,0.025 0,-0.038 0.005,-0.044 0.007,-0.075l0 -0.259c-0,-0.037 -0.006,-0.044 -0.007,-0.075 -0.002,-0.029 0.002,-0.059 -0.001,-0.088 -0.018,-0.16 -0.022,-0.289 -0.048,-0.462 -0.047,-0.304 -0.148,-0.74 -0.262,-1.026 -0.016,-0.041 -0.116,-0.291 -0.118,-0.318zm0 0l0 0zm-1.716 -0.388l0.116 -0.007c0.04,0 0.087,-0.009 0.114,-0.005l0.234 0.012c0.044,0 0.286,0.026 0.322,0.046 0.015,0.008 0.019,0.021 0.027,0.034l0.106 0.207c0.07,0.128 0.138,0.292 0.192,0.428l0.07 0.182c0.036,0.092 0.063,0.183 0.091,0.277 0.058,0.194 0.162,0.622 0.173,0.822 0.002,0.039 0.004,0.074 0.01,0.113 0.039,0.278 0.012,0.812 -0.043,1.087 -0.007,0.033 -0.012,0.056 -0.017,0.092 -0.043,0.266 -0.125,0.512 -0.208,0.766 -0.052,0.159 -0.121,0.315 -0.185,0.469 -0.052,0.127 -0.118,0.249 -0.171,0.374 -0.058,0.136 -0.127,0.268 -0.195,0.398 -0.006,0.012 -0.012,0.021 -0.019,0.035l-0.361 0.729c-0.108,0.225 -0.202,0.451 -0.289,0.685 -0.009,0.025 -0.017,0.053 -0.028,0.081l-0.052 0.166c-0.018,0.057 -0.03,0.111 -0.046,0.172 -0.086,0.337 -0.082,0.716 -0.045,1.061 0.012,0.111 0.037,0.212 0.055,0.32 0.006,0.033 0.009,0.042 0.017,0.072 0.114,0.424 0.155,0.515 0.316,0.89 0.019,0.043 0.043,0.086 0.063,0.127 0.101,0.202 0.18,0.315 0.266,0.477l-0.305 0.013c-0.071,-0.006 -0.447,-0.013 -0.482,-0.056 -0.014,-0.017 -0.026,-0.043 -0.039,-0.063 -0.104,-0.155 -0.197,-0.314 -0.281,-0.482 -0.048,-0.097 -0.094,-0.189 -0.135,-0.293 -0.064,-0.159 -0.113,-0.317 -0.155,-0.485 -0.139,-0.55 -0.068,-1.163 0.067,-1.702 0.044,-0.176 0.092,-0.351 0.155,-0.519 0.042,-0.111 0.078,-0.211 0.123,-0.319 0.13,-0.311 0.283,-0.608 0.433,-0.909 0.258,-0.516 0.529,-1.027 0.703,-1.578 0.144,-0.456 0.221,-0.946 0.182,-1.432 -0.024,-0.3 -0.071,-0.583 -0.154,-0.868 -0.046,-0.158 -0.093,-0.304 -0.152,-0.454 -0.047,-0.12 -0.094,-0.243 -0.152,-0.359 -0.012,-0.025 -0.023,-0.043 -0.034,-0.069l-0.067 -0.138c-0.025,-0.044 -0.045,-0.087 -0.07,-0.134 -0.047,-0.088 -0.092,-0.178 -0.147,-0.261z"></path>
        </g>
        <path class="fil0"
              d="M3.355 18.891l0.36 0 -0.651 -1.006c-0.177,-0.279 -0.275,-0.396 -0.424,-0.444 0.121,-0.057 0.214,-0.174 0.38,-0.42l0.622 -0.957 -0.36 0 -0.545 0.848c-0.19,0.291 -0.258,0.392 -0.549,0.392l-0.416 0 0 -1.24 -0.315 0 0 2.828 0.315 0 0 -1.289 0.46 0c0.287,0 0.36,0.105 0.55,0.392l0.573 0.897z"></path>
        <path id="1" class="fil0"
              d="M7.937 16.035c-0.796,0 -1.438,0.646 -1.438,1.442 0,0.8 0.642,1.442 1.438,1.442 0.796,0 1.442,-0.642 1.442,-1.442 0,-0.796 -0.646,-1.442 -1.442,-1.442zm0 0.295c0.626,0 1.127,0.493 1.127,1.147 0,0.658 -0.501,1.147 -1.127,1.147 -0.626,0 -1.123,-0.489 -1.123,-1.147 0,-0.654 0.497,-1.147 1.123,-1.147z"></path>
        <path id="2" class="fil0"
              d="M15.628 16.12c-0.392,0 -0.731,0.222 -0.893,0.537l0 -0.594 -0.315 0 0 0.594c-0.162,-0.315 -0.501,-0.537 -0.893,-0.537 -0.671,0 -1.151,0.525 -1.151,1.175 0,0.655 0.481,1.176 1.151,1.176 0.392,0 0.731,-0.218 0.893,-0.537l0 0.957 0.315 0 0 -0.957c0.162,0.319 0.501,0.537 0.893,0.537 0.667,0 1.151,-0.521 1.151,-1.176 0,-0.65 -0.485,-1.175 -1.151,-1.175zm-2.076 2.052c-0.481,0 -0.86,-0.376 -0.86,-0.877 0,-0.501 0.38,-0.876 0.86,-0.876 0.481,0 0.864,0.376 0.864,0.876 0,0.501 -0.384,0.877 -0.864,0.877zm2.052 0c-0.485,0 -0.864,-0.376 -0.864,-0.877 0,-0.501 0.38,-0.876 0.864,-0.876 0.481,0 0.86,0.376 0.86,0.876 0,0.501 -0.38,0.877 -0.86,0.877z"></path>
        <polygon id="3" class="fil0"
                 points="20.271,17.315 20.271,16.358 21.745,16.358 21.745,16.063 19.955,16.063 19.955,18.891 21.745,18.891 21.745,18.596 20.271,18.596 20.271,17.61 21.656,17.61 21.656,17.315 "></polygon>
        <path id="4" class="fil0"
              d="M30.272 19.412l0 -0.816 -0.364 0 -1.046 -2.533 -0.178 0 -1.05 2.533 -0.368 0 0 0.816 0.315 0 0 -0.521 2.375 0 0 0.521 0.315 0zm-1.503 -2.759l0.8 1.943 -1.6 0 0.8 -1.943z"></path>
        <polygon id="5" class="fil0"
                 points="34.292,16.653 35.205,18.891 35.553,18.891 34.385,16.063 34.207,16.063 33.036,18.891 33.383,18.891 "></polygon>
        <path id="6" class="fil0"
              d="M40.522 18.891l0 -2.828 -0.909 0c-0.719,0 -1.22,0.388 -1.22,1.018 0,0.473 0.291,0.784 0.719,0.909 -0.149,0.065 -0.291,0.198 -0.464,0.469l-0.283 0.432 0.356 0 0.234 -0.36c0.238,-0.367 0.371,-0.428 0.67,-0.432l0.582 0 0 0.792 0.315 0zm-0.315 -2.533l0 1.446 -0.618 0c-0.489,0 -0.897,-0.218 -0.897,-0.723 0,-0.497 0.408,-0.723 0.897,-0.723l0.618 0z"></path>
        <path id="7" class="fil0"
              d="M46.573 16.063l0 2.828 1.127 0c0.731,0 0.985,-0.331 0.985,-0.784 0,-0.359 -0.206,-0.63 -0.578,-0.699 0.295,-0.097 0.428,-0.323 0.428,-0.618 0,-0.327 -0.145,-0.727 -0.937,-0.727l-1.026 0zm0.315 0.295l0.739 0c0.525,0 0.61,0.234 0.61,0.469 0,0.234 -0.117,0.464 -0.61,0.464l-0.739 0 0 -0.933zm0 1.204l0.868 0c0.436,0 0.63,0.214 0.63,0.517 0,0.303 -0.157,0.517 -0.63,0.517l-0.868 0 0 -1.034z"></path>
        <path id="8" class="fil0"
              d="M54.495 19.412l0 -0.816 -0.364 0 -1.046 -2.533 -0.178 0 -1.05 2.533 -0.368 0 0 0.816 0.315 0 0 -0.521 2.375 0 0 0.521 0.315 0zm-1.503 -2.759l0.8 1.943 -1.6 0 0.8 -1.943z"></path>
        <path id="9" class="fil0"
              d="M58.632 16.035c-0.796,0 -1.438,0.646 -1.438,1.442 0,0.8 0.642,1.442 1.438,1.442 0.796,0 1.442,-0.642 1.442,-1.442 0,-0.796 -0.646,-1.442 -1.442,-1.442zm0 0.295c0.626,0 1.127,0.493 1.127,1.147 0,0.658 -0.501,1.147 -1.127,1.147 -0.626,0 -1.123,-0.489 -1.123,-1.147 0,-0.654 0.497,-1.147 1.123,-1.147z"></path>
        <polygon id="10" class="fil0"
                 points="64.001,17.715 64.842,18.891 65.205,18.891 64.183,17.448 65.157,16.063 64.789,16.063 64.009,17.162 63.218,16.063 62.854,16.063 63.823,17.432 62.801,18.891 63.165,18.891 "></polygon>
        <polygon id="11" class="fil0"
                 points="70.389,18.891 70.389,16.063 70.073,16.063 70.073,17.311 68.567,17.311 68.567,16.063 68.252,16.063 68.252,18.891 68.567,18.891 68.567,17.606 70.073,17.606 70.073,18.891 "></polygon>
        <path id="12" class="fil0"
              d="M74.958 16.035c-0.796,0 -1.438,0.646 -1.438,1.442 0,0.8 0.642,1.442 1.438,1.442 0.796,0 1.442,-0.642 1.442,-1.442 0,-0.796 -0.646,-1.442 -1.442,-1.442zm0 0.295c0.626,0 1.127,0.493 1.127,1.147 0,0.658 -0.501,1.147 -1.127,1.147 -0.626,0 -1.123,-0.489 -1.123,-1.147 0,-0.654 0.497,-1.147 1.123,-1.147z"></path>
        <path id="13" class="fil0"
              d="M79.576 16.063l0 2.828 1.127 0c0.731,0 0.985,-0.331 0.985,-0.784 0,-0.359 -0.206,-0.63 -0.578,-0.699 0.295,-0.097 0.428,-0.323 0.428,-0.618 0,-0.327 -0.145,-0.727 -0.937,-0.727l-1.026 0zm0.315 0.295l0.739 0c0.525,0 0.61,0.234 0.61,0.469 0,0.234 -0.117,0.464 -0.61,0.464l-0.739 0 0 -0.933zm0 1.204l0.868 0c0.436,0 0.63,0.214 0.63,0.517 0,0.303 -0.157,0.517 -0.63,0.517l-0.868 0 0 -1.034z"></path>
        <polygon id="14" class="fil0"
                 points="85.127,17.315 85.127,16.358 86.601,16.358 86.601,16.063 84.812,16.063 84.812,18.891 86.601,18.891 86.601,18.596 85.127,18.596 85.127,17.61 86.512,17.61 86.512,17.315 "></polygon>
        <polygon id="15" class="fil0"
                 points="91.841,18.891 91.841,16.063 91.526,16.063 91.526,17.311 90.019,17.311 90.019,16.063 89.704,16.063 89.704,18.891 90.019,18.891 90.019,17.606 91.526,17.606 91.526,18.891 "></polygon>
        <polygon id="16" class="fil0"
                 points="97.251,18.891 97.251,16.063 97.077,16.063 95.425,18.273 95.425,16.063 95.11,16.063 95.11,18.891 95.287,18.891 96.936,16.681 96.936,18.891 "></polygon>
        <path id="17" class="fil0"
              d="M102.45 18.891l0 -2.828 -0.909 0c-0.719,0 -1.22,0.388 -1.22,1.018 0,0.473 0.291,0.784 0.719,0.909 -0.149,0.065 -0.291,0.198 -0.464,0.469l-0.283 0.432 0.356 0 0.234 -0.36c0.238,-0.367 0.371,-0.428 0.67,-0.432l0.582 0 0 0.792 0.315 0zm-0.315 -2.533l0 1.446 -0.618 0c-0.489,0 -0.897,-0.218 -0.897,-0.723 0,-0.497 0.408,-0.723 0.897,-0.723l0.618 0z"></path>
    </g>
</svg>
